<svg width="293" height="112" viewBox="0 0 293 112" fill="none" xmlns="http://www.w3.org/2000/svg">
<path d="M0.923781 5.97796C-0.514203 10.1557 1.70679 14.7081 5.88452 16.1461C10.0622 17.5841 14.6147 15.3631 16.0527 11.1854C17.4906 7.00764 15.2696 2.45521 11.0919 1.01723C6.9142 -0.420759 2.36177 1.80024 0.923781 5.97796ZM276.924 100.978C275.486 105.156 277.707 109.708 281.885 111.146C286.062 112.584 290.615 110.363 292.053 106.185C293.491 102.008 291.27 97.4552 287.092 96.0172C282.914 94.5792 278.362 96.8002 276.924 100.978ZM8.00003 10L284 105L284.976 102.163L8.97641 7.16333L8.00003 10Z" fill="#288758"/>
</svg>
